<svg width="40" height="41" viewBox="0 0 40 41" fill="none" xmlns="http://www.w3.org/2000/svg">
<path d="M20 0.5C25.434 0.5 26.112 0.52 28.244 0.62C30.374 0.72 31.824 1.054 33.1 1.55C34.42 2.058 35.532 2.746 36.644 3.856C37.661 4.85579 38.4479 6.06518 38.95 7.4C39.444 8.674 39.78 10.126 39.88 12.256C39.974 14.388 40 15.066 40 20.5C40 25.934 39.98 26.612 39.88 28.744C39.78 30.874 39.444 32.324 38.95 33.6C38.4494 34.9356 37.6622 36.1452 36.644 37.144C35.6439 38.1606 34.4346 38.9475 33.1 39.45C31.826 39.944 30.374 40.28 28.244 40.38C26.112 40.474 25.434 40.5 20 40.5C14.566 40.5 13.888 40.48 11.756 40.38C9.626 40.28 8.176 39.944 6.9 39.45C5.56465 38.9489 4.35505 38.1619 3.356 37.144C2.33881 36.1444 1.55186 34.9349 1.05 33.6C0.554 32.326 0.22 30.874 0.12 28.744C0.0259999 26.612 0 25.934 0 20.5C0 15.066 0.0199999 14.388 0.12 12.256C0.22 10.124 0.554 8.676 1.05 7.4C1.55047 6.06436 2.33761 4.85464 3.356 3.856C4.35534 2.83846 5.56486 2.05146 6.9 1.55C8.176 1.054 9.624 0.72 11.756 0.62C13.888 0.526 14.566 0.5 20 0.5ZM20 10.5C17.3478 10.5 14.8043 11.5536 12.9289 13.4289C11.0536 15.3043 10 17.8478 10 20.5C10 23.1522 11.0536 25.6957 12.9289 27.5711C14.8043 29.4464 17.3478 30.5 20 30.5C22.6522 30.5 25.1957 29.4464 27.0711 27.5711C28.9464 25.6957 30 23.1522 30 20.5C30 17.8478 28.9464 15.3043 27.0711 13.4289C25.1957 11.5536 22.6522 10.5 20 10.5ZM33 10C33 9.33696 32.7366 8.70107 32.2678 8.23223C31.7989 7.76339 31.163 7.5 30.5 7.5C29.837 7.5 29.2011 7.76339 28.7322 8.23223C28.2634 8.70107 28 9.33696 28 10C28 10.663 28.2634 11.2989 28.7322 11.7678C29.2011 12.2366 29.837 12.5 30.5 12.5C31.163 12.5 31.7989 12.2366 32.2678 11.7678C32.7366 11.2989 33 10.663 33 10ZM20 14.5C21.5913 14.5 23.1174 15.1321 24.2426 16.2574C25.3679 17.3826 26 18.9087 26 20.5C26 22.0913 25.3679 23.6174 24.2426 24.7426C23.1174 25.8679 21.5913 26.5 20 26.5C18.4087 26.5 16.8826 25.8679 15.7574 24.7426C14.6321 23.6174 14 22.0913 14 20.5C14 18.9087 14.6321 17.3826 15.7574 16.2574C16.8826 15.1321 18.4087 14.5 20 14.5Z" fill="#D3A562"/>
</svg>
