<svg width="36" height="37" viewBox="0 0 36 37" fill="none" xmlns="http://www.w3.org/2000/svg">
<path d="M24.804 36.5V22.568H29.47L30.168 17.152H24.804V13.696C24.804 12.128 25.24 11.058 27.488 11.058H30.356V6.214C28.9676 6.06669 27.5722 5.99525 26.176 6C22.042 6 19.212 8.524 19.212 13.16V17.152H14.536V22.568H19.212V36.5H2C1.46957 36.5 0.960859 36.2893 0.585786 35.9142C0.210714 35.5391 0 35.0304 0 34.5V2.5C0 1.96957 0.210714 1.46086 0.585786 1.08579C0.960859 0.710714 1.46957 0.5 2 0.5H34C34.5304 0.5 35.0391 0.710714 35.4142 1.08579C35.7893 1.46086 36 1.96957 36 2.5V34.5C36 35.0304 35.7893 35.5391 35.4142 35.9142C35.0391 36.2893 34.5304 36.5 34 36.5H24.804Z" fill="#D3A562"/>
</svg>
