<svg width="21" height="21" viewBox="0 0 21 21" fill="none" xmlns="http://www.w3.org/2000/svg">
<path d="M9.01099 0C13.9748 0 18.0034 4.032 18.0034 9C18.0034 13.968 13.9748 18 9.01099 18C4.0472 18 0.0186157 13.968 0.0186157 9C0.0186157 4.032 4.0472 0 9.01099 0ZM9.01099 16C12.8747 16 16.0051 12.867 16.0051 9C16.0051 5.132 12.8747 2 9.01099 2C5.14627 2 2.01692 5.132 2.01692 9C2.01692 12.867 5.14627 16 9.01099 16ZM17.4888 16.071L20.3154 18.899L18.9016 20.314L16.076 17.485L17.4888 16.071Z" fill="#322E29"/>
</svg>
