<svg width="16" height="16" viewBox="0 0 16 16" fill="none" xmlns="http://www.w3.org/2000/svg">
<path d="M7.70485 1.25474C7.89611 0.915414 8.38475 0.915413 8.576 1.25474L10.5673 4.78764C10.6386 4.91423 10.7615 5.00352 10.904 5.03226L14.8793 5.83436C15.2611 5.9114 15.4121 6.37612 15.1485 6.66287L12.4039 9.64843C12.3055 9.75541 12.2586 9.89988 12.2753 10.0442L12.7409 14.0729C12.7856 14.4598 12.3903 14.747 12.0361 14.5849L8.34851 12.8972C8.21638 12.8367 8.06448 12.8367 7.93235 12.8972L4.24477 14.5849C3.89059 14.747 3.49527 14.4598 3.53999 14.0729L4.00559 10.0442C4.02227 9.89988 3.97533 9.75541 3.87699 9.64843L1.13234 6.66287C0.868727 6.37612 1.01972 5.9114 1.40154 5.83436L5.37688 5.03226C5.51932 5.00352 5.64221 4.91423 5.71356 4.78764L7.70485 1.25474Z" fill="#D3A562"/>
</svg>
