<svg width="40" height="33" viewBox="0 0 40 33" fill="none" xmlns="http://www.w3.org/2000/svg">
<path d="M39.086 5.496C40 9.06 40 16.5 40 16.5C40 16.5 40 23.94 39.086 27.504C38.578 29.474 37.092 31.024 35.21 31.548C31.792 32.5 20 32.5 20 32.5C20 32.5 8.214 32.5 4.79 31.548C2.9 31.016 1.416 29.468 0.914 27.504C5.96046e-08 23.94 0 16.5 0 16.5C0 16.5 5.96046e-08 9.06 0.914 5.496C1.422 3.526 2.908 1.976 4.79 1.452C8.214 0.5 20 0.5 20 0.5C20 0.5 31.792 0.5 35.21 1.452C37.1 1.984 38.584 3.532 39.086 5.496ZM16 23.5L28 16.5L16 9.5V23.5Z" fill="#D3A562"/>
</svg>
